<svg width="1200" height="630" viewBox="0 0 1200 630" fill="none" xmlns="http://www.w3.org/2000/svg">
  <defs>
    <linearGradient id="bg" x1="0" y1="0" x2="1200" y2="630" gradientUnits="userSpaceOnUse">
      <stop stop-color="#060a14"/>
      <stop offset="1" stop-color="#0b162a"/>
    </linearGradient>
    <linearGradient id="accent" x1="0" y1="0" x2="300" y2="0" gradientUnits="userSpaceOnUse">
      <stop stop-color="#8b5cf6"/>
      <stop offset="1" stop-color="#22d3ee"/>
    </linearGradient>
  </defs>
  <rect width="1200" height="630" fill="url(#bg)"/>
  <!-- Subtle grid -->
  <g opacity="0.04" stroke="#fff" stroke-width="1">
    <line x1="0" y1="100" x2="1200" y2="100"/>
    <line x1="0" y1="200" x2="1200" y2="200"/>
    <line x1="0" y1="300" x2="1200" y2="300"/>
    <line x1="0" y1="400" x2="1200" y2="400"/>
    <line x1="0" y1="500" x2="1200" y2="500"/>
    <line x1="200" y1="0" x2="200" y2="630"/>
    <line x1="400" y1="0" x2="400" y2="630"/>
    <line x1="600" y1="0" x2="600" y2="630"/>
    <line x1="800" y1="0" x2="800" y2="630"/>
    <line x1="1000" y1="0" x2="1000" y2="630"/>
  </g>
  <!-- Decorative circles -->
  <circle cx="1050" cy="480" r="120" stroke="#8b5cf6" stroke-width="0.5" fill="none" opacity="0.1"/>
  <circle cx="1050" cy="480" r="80" stroke="#22d3ee" stroke-width="0.5" fill="none" opacity="0.08"/>
  <circle cx="1050" cy="480" r="40" stroke="#8b5cf6" stroke-width="0.5" fill="none" opacity="0.15"/>
  <!-- Eyebrow -->
  <text x="80" y="160" font-family="system-ui, -apple-system, sans-serif" font-size="16" letter-spacing="4" fill="#94a3b8">ANTIGRAVITY · GROWTH INTELLIGENCE</text>
  <!-- Title -->
  <text x="80" y="260" font-family="system-ui, -apple-system, sans-serif" font-size="72" font-weight="700" fill="#ffffff">UniverMilenium</text>
  <!-- Subtitle -->
  <text x="80" y="330" font-family="system-ui, -apple-system, sans-serif" font-size="36" fill="url(#accent)">Diagnóstico SEO · AEO · GEO</text>
  <!-- Metrics boxes -->
  <rect x="80" y="390" width="180" height="80" rx="16" fill="#ffffff" fill-opacity="0.04" stroke="#ffffff" stroke-opacity="0.08"/>
  <text x="130" y="425" font-family="system-ui, sans-serif" font-size="28" font-weight="700" fill="#ffffff">12</text>
  <text x="130" y="452" font-family="system-ui, sans-serif" font-size="14" fill="#94a3b8">Clusters</text>
  <rect x="280" y="390" width="220" height="80" rx="16" fill="#ffffff" fill-opacity="0.04" stroke="#ffffff" stroke-opacity="0.08"/>
  <text x="330" y="425" font-family="system-ui, sans-serif" font-size="28" font-weight="700" fill="#ffffff">89</text>
  <text x="330" y="452" font-family="system-ui, sans-serif" font-size="14" fill="#94a3b8">Ads analizados</text>
  <rect x="520" y="390" width="190" height="80" rx="16" fill="#ffffff" fill-opacity="0.04" stroke="#ffffff" stroke-opacity="0.08"/>
  <text x="570" y="425" font-family="system-ui, sans-serif" font-size="28" font-weight="700" fill="#ffffff">6</text>
  <text x="570" y="452" font-family="system-ui, sans-serif" font-size="14" fill="#94a3b8">Quick wins</text>
  <!-- Bottom bar -->
  <rect x="0" y="610" width="1200" height="20" fill="url(#accent)" opacity="0.3"/>
</svg>
